<svg width="148" height="41" viewBox="0 0 148 41" fill="none" xmlns="http://www.w3.org/2000/svg">
<path fill-rule="evenodd" clip-rule="evenodd" d="M139.998 6.20089e-08C144.416 2.77621e-08 147.998 3.58172 147.998 8L147.998 25C147.998 29.4183 144.416 33 139.998 33L80.8446 33L76.6874 39.5637C75.9022 40.8035 74.0934 40.8035 73.3082 39.5637L69.151 33L7.9978 33C3.57952 33 -0.00219774 29.4183 -0.00219588 25L-0.00219682 8C-0.00219707 3.58172 3.57953 -1.2374e-07 7.99781 -2.76381e-07L139.998 6.20089e-08Z" fill="#1C1C28"/>
<path d="M18.9763 21.38C18.9763 21.3 19.0043 21.236 19.0603 21.188C19.1163 21.14 19.1803 21.116 19.2523 21.116H19.7683C19.8403 21.116 19.9043 21.14 19.9603 21.188C20.0163 21.236 20.0443 21.3 20.0443 21.38V22.028C20.0443 22.092 20.0163 22.148 19.9603 22.196C19.9043 22.252 19.8403 22.28 19.7683 22.28H19.2523C19.1803 22.28 19.1163 22.252 19.0603 22.196C19.0043 22.148 18.9763 22.092 18.9763 22.028V21.38ZM22.5043 18.968C22.7283 18.968 22.8723 18.948 22.9364 18.908C23.0004 18.868 23.0324 18.744 23.0324 18.536C23.0324 18.256 23.0324 17.992 23.0324 17.744C23.0324 17.496 23.0324 17.248 23.0324 17C23.0324 16.752 23.0284 16.5 23.0203 16.244C23.0203 15.98 23.0163 15.692 23.0083 15.38C23.0083 15.316 23.0283 15.264 23.0683 15.224C23.1083 15.176 23.1603 15.152 23.2243 15.152H23.7883C23.8603 15.152 23.9163 15.176 23.9563 15.224C23.9963 15.264 24.0163 15.316 24.0163 15.38C24.0244 15.652 24.0284 15.88 24.0284 16.064C24.0364 16.248 24.0404 16.42 24.0404 16.58C24.0404 16.74 24.0404 16.908 24.0404 17.084C24.0404 17.252 24.0404 17.456 24.0404 17.696C24.0404 18.08 24.0364 18.436 24.0284 18.764C24.0284 19.092 24.0164 19.348 23.9924 19.532C23.9764 19.612 23.9484 19.68 23.9083 19.736C23.8764 19.792 23.8124 19.84 23.7164 19.88C23.6523 19.904 23.5443 19.924 23.3923 19.94C23.2483 19.948 23.0763 19.96 22.8764 19.976C22.6844 19.984 22.4724 19.992 22.2403 20C22.0163 20 21.7923 20 21.5683 20H18.7603C17.9923 20 17.3603 19.928 16.8643 19.784C16.3763 19.632 15.9883 19.42 15.7003 19.148C15.4203 18.868 15.2243 18.532 15.1123 18.14C15.0083 17.74 14.9563 17.296 14.9563 16.808C14.9563 16.64 14.9603 16.468 14.9683 16.292C14.9843 16.108 15.0123 15.9 15.0523 15.668C15.0763 15.516 15.1563 15.44 15.2923 15.44H15.7963C15.9323 15.44 15.9923 15.52 15.9763 15.68C15.9603 15.864 15.9483 16.02 15.9403 16.148C15.9323 16.276 15.9283 16.408 15.9283 16.544C15.9283 16.904 15.9603 17.232 16.0243 17.528C16.0883 17.824 16.2203 18.08 16.4203 18.296C16.6283 18.512 16.9203 18.68 17.2963 18.8C17.6803 18.912 18.1883 18.968 18.8203 18.968H22.5043ZM24.5638 22.04C24.5638 21.928 24.6318 21.872 24.7678 21.872H25.0198C25.2838 21.872 25.4998 21.86 25.6678 21.836C25.8358 21.812 25.9718 21.76 26.0758 21.68C26.1798 21.6 26.2518 21.48 26.2918 21.32C26.3318 21.168 26.3518 20.96 26.3518 20.696V15.38C26.3518 15.316 26.3718 15.264 26.4118 15.224C26.4518 15.176 26.5038 15.152 26.5678 15.152H27.1558C27.2118 15.152 27.2598 15.176 27.2998 15.224C27.3398 15.264 27.3598 15.316 27.3598 15.38V18.968H28.4638V20H27.3478V20.768C27.3478 21.024 27.3318 21.26 27.2998 21.476C27.2678 21.692 27.2078 21.88 27.1198 22.04C26.9598 22.32 26.7358 22.516 26.4478 22.628C26.1678 22.74 25.7958 22.796 25.3318 22.796C25.2918 22.796 25.2038 22.792 25.0678 22.784C24.9398 22.776 24.8358 22.764 24.7558 22.748C24.6758 22.732 24.6238 22.708 24.5998 22.676C24.5758 22.652 24.5638 22.612 24.5638 22.556V22.04ZM27.9846 19.124C27.9846 19.076 28.0246 19.04 28.1046 19.016C28.1846 18.984 28.2806 18.968 28.3926 18.968H30.3246L29.1966 16.088C29.1806 16.064 29.1686 16.032 29.1606 15.992C29.1606 15.952 29.1606 15.916 29.1606 15.884L29.1726 15.536C29.1806 15.432 29.2486 15.328 29.3766 15.224C29.5126 15.104 29.6726 14.996 29.8566 14.9C30.0486 14.796 30.2566 14.712 30.4806 14.648C30.7046 14.576 30.9366 14.52 31.1766 14.48C31.4166 14.44 31.6566 14.42 31.8966 14.42C32.2886 14.42 32.6486 14.464 32.9766 14.552C33.3126 14.64 33.6006 14.78 33.8406 14.972C34.0806 15.156 34.2646 15.396 34.3926 15.692C34.5286 15.988 34.5966 16.34 34.5966 16.748V16.976C34.5966 17.168 34.5766 17.364 34.5366 17.564C34.4966 17.764 34.4406 17.956 34.3686 18.14C34.2966 18.316 34.2086 18.48 34.1046 18.632C34.0086 18.776 33.9006 18.888 33.7806 18.968H35.2926V20H28.3926C28.2806 20 28.1846 19.988 28.1046 19.964C28.0246 19.932 27.9846 19.888 27.9846 19.832V19.124ZM32.2686 18.98C32.6846 18.884 33.0086 18.652 33.2406 18.284C33.4806 17.916 33.6006 17.488 33.6006 17V16.868C33.6006 16.34 33.4486 15.96 33.1446 15.728C32.8406 15.488 32.4246 15.368 31.8966 15.368C31.6886 15.368 31.4206 15.396 31.0926 15.452C30.7646 15.508 30.4526 15.636 30.1566 15.836L31.3806 18.98H32.2686ZM34.8166 19.124C34.8166 19.076 34.8566 19.04 34.9366 19.016C35.0166 18.984 35.1126 18.968 35.2246 18.968H36.1846C36.4166 18.968 36.5606 18.948 36.6166 18.908C36.6806 18.868 36.7126 18.744 36.7126 18.536V11.216C36.7126 11.152 36.7326 11.1 36.7726 11.06C36.8206 11.012 36.8766 10.988 36.9406 10.988H37.5286C37.5926 10.988 37.6446 11.012 37.6846 11.06C37.7246 11.1 37.7446 11.152 37.7446 11.216V18.14C37.7446 18.236 37.7446 18.344 37.7446 18.464C37.7446 18.584 37.7406 18.708 37.7326 18.836C37.7326 18.964 37.7286 19.088 37.7206 19.208C37.7126 19.328 37.7006 19.436 37.6846 19.532C37.6686 19.612 37.6446 19.68 37.6126 19.736C37.5806 19.792 37.5166 19.84 37.4206 19.88C37.3566 19.904 37.2646 19.924 37.1446 19.94C37.0246 19.948 36.8926 19.96 36.7486 19.976C36.6046 19.984 36.4526 19.992 36.2926 20C36.1406 20 35.9966 20 35.8606 20H35.2246C35.1126 20 35.0166 19.988 34.9366 19.964C34.8566 19.932 34.8166 19.888 34.8166 19.832V19.124ZM39.7868 11.216C39.7868 11.152 39.8068 11.096 39.8468 11.048C39.8948 11 39.9508 10.976 40.0148 10.976H40.6028C40.6668 10.976 40.7188 11 40.7588 11.048C40.7988 11.096 40.8188 11.152 40.8188 11.216V19.76C40.8188 19.824 40.7988 19.88 40.7588 19.928C40.7188 19.976 40.6668 20 40.6028 20H40.0148C39.9508 20 39.8948 19.976 39.8468 19.928C39.8068 19.88 39.7868 19.824 39.7868 19.76V11.216ZM45.5311 20.36C45.5311 20.208 45.5391 20.016 45.5551 19.784C45.5711 19.552 45.5871 19.372 45.6031 19.244C45.6191 19.164 45.6431 19.104 45.6751 19.064C45.7151 19.016 45.7791 18.992 45.8671 18.992C45.9151 18.992 45.9831 18.992 46.0711 18.992C46.1591 18.984 46.2551 18.98 46.3591 18.98C46.4711 18.972 46.5831 18.968 46.6951 18.968C46.8071 18.968 46.9071 18.968 46.9951 18.968H50.4271L49.9711 17.924L49.7071 17.3C49.5711 16.996 49.4191 16.732 49.2511 16.508C49.0911 16.276 48.9031 16.088 48.6871 15.944C48.4791 15.792 48.2391 15.68 47.9671 15.608C47.7031 15.528 47.3991 15.488 47.0551 15.488C47.0231 15.488 46.9711 15.492 46.8991 15.5C46.8351 15.5 46.7591 15.504 46.6711 15.512C46.5831 15.52 46.4951 15.528 46.4071 15.536C46.3191 15.536 46.2391 15.54 46.1671 15.548C45.9991 15.564 45.9151 15.504 45.9151 15.368V14.888C45.9151 14.824 45.9271 14.776 45.9511 14.744C45.9831 14.704 46.0431 14.676 46.1311 14.66C46.4751 14.588 46.8311 14.552 47.1991 14.552C47.5911 14.552 47.9551 14.592 48.2911 14.672C48.6351 14.744 48.9551 14.884 49.2511 15.092C49.5551 15.292 49.8391 15.572 50.1031 15.932C50.3671 16.284 50.6151 16.74 50.8471 17.3L50.9791 17.6L51.4831 18.896C51.4991 18.952 51.5111 19.008 51.5191 19.064C51.5351 19.12 51.5431 19.192 51.5431 19.28V19.712C51.5431 19.8 51.5191 19.872 51.4711 19.928C51.4231 19.976 51.3311 20 51.1951 20H47.5111C47.3911 20 47.2311 20 47.0311 20C46.8311 20 46.6671 20.004 46.5391 20.012C46.5311 20.116 46.5271 20.204 46.5271 20.276C46.5271 20.356 46.5271 20.416 46.5271 20.456C46.5511 21.608 47.0471 22.184 48.0151 22.184H48.0631C48.2071 22.184 48.2791 22.252 48.2791 22.388V22.844C48.2791 22.916 48.2671 22.968 48.2431 23C48.2191 23.032 48.1631 23.056 48.0751 23.072C48.0271 23.08 47.9871 23.084 47.9551 23.084C47.9231 23.084 47.8991 23.084 47.8831 23.084C47.1151 23.084 46.5311 22.852 46.1311 22.388C45.7311 21.932 45.5311 21.256 45.5311 20.36ZM48.4471 20.984C48.4471 20.904 48.4751 20.84 48.5311 20.792C48.5871 20.744 48.6511 20.72 48.7231 20.72H49.1791C49.2511 20.72 49.3151 20.744 49.3711 20.792C49.4351 20.84 49.4671 20.904 49.4671 20.984V21.536C49.4671 21.608 49.4351 21.668 49.3711 21.716C49.3151 21.772 49.2511 21.8 49.1791 21.8H48.7231C48.6511 21.8 48.5871 21.772 48.5311 21.716C48.4751 21.668 48.4471 21.608 48.4471 21.536V20.984ZM52.1504 22.052C52.1504 21.932 52.2224 21.872 52.3664 21.872H52.4984C52.6744 21.872 52.8264 21.864 52.9544 21.848C53.0904 21.832 53.1984 21.796 53.2784 21.74C53.3664 21.684 53.4304 21.596 53.4704 21.476C53.5184 21.364 53.5424 21.208 53.5424 21.008V15.38C53.5424 15.316 53.5624 15.264 53.6024 15.224C53.6424 15.176 53.6944 15.152 53.7584 15.152H54.3344C54.3984 15.152 54.4504 15.176 54.4904 15.224C54.5304 15.264 54.5504 15.316 54.5504 15.38V18.968H55.6544V20H54.5264V20.912C54.5264 21.168 54.5144 21.392 54.4904 21.584C54.4664 21.776 54.4104 21.948 54.3224 22.1C54.1624 22.38 53.9504 22.564 53.6864 22.652C53.4224 22.748 53.0984 22.796 52.7144 22.796C52.6744 22.796 52.6224 22.792 52.5584 22.784C52.4944 22.784 52.4264 22.78 52.3544 22.772C52.2184 22.748 52.1504 22.68 52.1504 22.568V22.052ZM56.0001 21.38C56.0001 21.3 56.0281 21.236 56.0841 21.188C56.1401 21.14 56.2041 21.116 56.2761 21.116H56.7921C56.8641 21.116 56.9281 21.14 56.9841 21.188C57.0401 21.236 57.0681 21.3 57.0681 21.38V22.028C57.0681 22.092 57.0401 22.148 56.9841 22.196C56.9281 22.252 56.8641 22.28 56.7921 22.28H56.2761C56.2041 22.28 56.1401 22.252 56.0841 22.196C56.0281 22.148 56.0001 22.092 56.0001 22.028V21.38ZM55.1721 19.124C55.1721 19.076 55.2121 19.04 55.2921 19.016C55.3721 18.984 55.4681 18.968 55.5801 18.968H56.4201C56.6521 18.968 56.8001 18.948 56.8641 18.908C56.9281 18.868 56.9601 18.744 56.9601 18.536C56.9601 18.256 56.9601 17.992 56.9601 17.744C56.9601 17.496 56.9601 17.248 56.9601 17C56.9601 16.752 56.9561 16.496 56.9481 16.232C56.9481 15.968 56.9441 15.68 56.9361 15.368C56.9361 15.304 56.9521 15.252 56.9841 15.212C57.0241 15.164 57.0761 15.14 57.1401 15.14H57.7161C57.7881 15.14 57.8441 15.164 57.8841 15.212C57.9241 15.252 57.9441 15.304 57.9441 15.368C57.9521 15.64 57.9561 15.868 57.9561 16.052C57.9641 16.236 57.9681 16.412 57.9681 16.58C57.9681 16.74 57.9681 16.908 57.9681 17.084C57.9681 17.252 57.9681 17.456 57.9681 17.696C57.9681 18.08 57.9641 18.436 57.9561 18.764C57.9561 19.092 57.9441 19.348 57.9201 19.532C57.9041 19.612 57.8761 19.68 57.8361 19.736C57.8041 19.792 57.7401 19.84 57.6441 19.88C57.5801 19.904 57.4921 19.924 57.3801 19.94C57.2681 19.948 57.1401 19.96 56.9961 19.976C56.8521 19.984 56.7041 19.992 56.5521 20C56.4001 20 56.2561 20 56.1201 20H55.5801C55.4681 20 55.3721 19.988 55.2921 19.964C55.2121 19.932 55.1721 19.888 55.1721 19.832V19.124ZM63.9496 18.584C63.9496 18.6 63.9416 18.632 63.9256 18.68L63.0256 20.948C62.9936 21.028 62.9616 21.084 62.9296 21.116C62.9056 21.156 62.8616 21.176 62.7976 21.176H62.3056C62.2096 21.176 62.1616 21.128 62.1616 21.032C62.1616 20.992 62.1656 20.964 62.1736 20.948L62.8576 18.68C62.9056 18.528 62.9856 18.452 63.0976 18.452H63.7936C63.8976 18.452 63.9496 18.496 63.9496 18.584ZM68.9649 16.688C69.1089 16.688 69.1689 16.772 69.1449 16.94C69.1289 17.124 69.1129 17.316 69.0969 17.516C69.0809 17.708 69.0729 17.872 69.0729 18.008C69.0729 18.424 69.1009 18.816 69.1569 19.184C69.2129 19.552 69.3329 19.872 69.5169 20.144C69.7089 20.416 69.9849 20.628 70.3449 20.78C70.7129 20.94 71.2049 21.02 71.8209 21.02C71.9809 21.02 72.1529 21.016 72.3369 21.008C72.5289 21 72.7089 20.976 72.8769 20.936C72.8849 20.712 72.8889 20.516 72.8889 20.348C72.8969 20.18 72.9009 20.02 72.9009 19.868C72.9009 19.716 72.9009 19.568 72.9009 19.424C72.9009 19.28 72.9009 19.124 72.9009 18.956V11.216C72.9009 11.152 72.9209 11.1 72.9609 11.06C73.0009 11.012 73.0529 10.988 73.1169 10.988H73.7169C73.7809 10.988 73.8329 11.012 73.8729 11.06C73.9129 11.1 73.9329 11.152 73.9329 11.216V19.82C73.9329 19.916 73.9289 20.044 73.9209 20.204C73.9209 20.364 73.9169 20.532 73.9089 20.708C73.9089 20.892 73.9049 21.064 73.8969 21.224C73.8969 21.392 73.8929 21.524 73.8849 21.62C73.8769 21.7 73.8529 21.756 73.8129 21.788C73.7729 21.82 73.7089 21.848 73.6209 21.872C73.3409 21.936 73.0529 21.98 72.7569 22.004C72.4609 22.036 72.1369 22.052 71.7849 22.052C71.0809 22.052 70.4929 21.968 70.0209 21.8C69.5489 21.64 69.1689 21.404 68.8809 21.092C68.5929 20.78 68.3889 20.4 68.2689 19.952C68.1489 19.496 68.0889 18.984 68.0889 18.416C68.0889 18.336 68.0929 18.236 68.1009 18.116C68.1089 17.988 68.1169 17.856 68.1249 17.72C68.1409 17.576 68.1569 17.436 68.1729 17.3C68.1889 17.156 68.2089 17.028 68.2329 16.916C68.2649 16.764 68.3369 16.688 68.4489 16.688H68.9649ZM76.094 22.016C76.094 21.904 76.158 21.848 76.286 21.848C76.422 21.848 76.594 21.848 76.802 21.848C77.01 21.856 77.178 21.86 77.306 21.86C77.626 21.86 77.91 21.84 78.158 21.8C78.414 21.768 78.63 21.7 78.806 21.596C78.99 21.5 79.13 21.36 79.226 21.176C79.322 21 79.374 20.768 79.382 20.48V20H78.182C77.374 20 76.754 19.792 76.322 19.376C75.89 18.96 75.674 18.332 75.674 17.492V17.192C75.674 16.352 75.922 15.688 76.418 15.2C76.914 14.712 77.618 14.468 78.53 14.468C78.85 14.468 79.158 14.484 79.454 14.516C79.758 14.54 80.014 14.584 80.222 14.648C80.294 14.672 80.342 14.7 80.366 14.732C80.39 14.756 80.402 14.8 80.402 14.864V18.968H81.446V20H80.39V20.456C80.374 20.904 80.294 21.276 80.15 21.572C80.006 21.876 79.81 22.116 79.562 22.292C79.314 22.476 79.014 22.604 78.662 22.676C78.318 22.756 77.938 22.796 77.522 22.796C77.442 22.796 77.338 22.792 77.21 22.784C77.09 22.784 76.966 22.78 76.838 22.772C76.718 22.772 76.606 22.768 76.502 22.76C76.398 22.752 76.326 22.744 76.286 22.736C76.206 22.72 76.154 22.696 76.13 22.664C76.106 22.64 76.094 22.6 76.094 22.544V22.016ZM76.682 17.372C76.682 17.94 76.802 18.352 77.042 18.608C77.282 18.864 77.67 18.992 78.206 18.992H79.394V15.464C79.234 15.448 79.078 15.436 78.926 15.428C78.774 15.42 78.598 15.416 78.398 15.416C77.87 15.416 77.45 15.564 77.138 15.86C76.834 16.156 76.682 16.58 76.682 17.132V17.372ZM80.9651 19.124C80.9651 19.076 81.0051 19.04 81.0851 19.016C81.1651 18.984 81.2611 18.968 81.3731 18.968H81.7571C81.8131 18.968 81.8851 18.964 81.9731 18.956C82.0611 18.948 82.1491 18.928 82.2371 18.896C82.3251 18.864 82.4011 18.824 82.4651 18.776C82.5371 18.72 82.5851 18.644 82.6091 18.548C82.6331 18.452 82.6451 18.336 82.6451 18.2V17.048C82.6451 16.224 82.8571 15.592 83.2811 15.152C83.7131 14.712 84.3291 14.492 85.1291 14.492C85.9291 14.492 86.5331 14.708 86.9411 15.14C87.3491 15.572 87.5531 16.204 87.5531 17.036V17.648C87.5531 18.48 87.3611 19.112 86.9771 19.544C86.5931 19.968 85.9691 20.18 85.1051 20.18C84.6571 20.18 84.2611 20.12 83.9171 20C83.5811 19.872 83.3131 19.68 83.1131 19.424C82.9771 19.64 82.7691 19.792 82.4891 19.88C82.2091 19.96 81.9011 20 81.5651 20H81.3731C81.2611 20 81.1651 19.988 81.0851 19.964C81.0051 19.932 80.9651 19.888 80.9651 19.832V19.124ZM83.6531 17.672C83.6531 17.928 83.6691 18.148 83.7011 18.332C83.7811 18.684 83.9411 18.924 84.1811 19.052C84.4211 19.172 84.7291 19.232 85.1051 19.232C85.6331 19.232 86.0051 19.108 86.2211 18.86C86.4371 18.604 86.5451 18.18 86.5451 17.588V17.144C86.5451 16.6 86.4371 16.18 86.2211 15.884C86.0131 15.588 85.6491 15.44 85.1291 15.44C84.6011 15.44 84.2211 15.588 83.9891 15.884C83.7651 16.172 83.6531 16.592 83.6531 17.144V17.672ZM91.9605 18.404C91.9605 18.332 91.9645 18.236 91.9725 18.116C91.9805 17.996 91.9885 17.868 91.9965 17.732C92.0125 17.588 92.0285 17.448 92.0445 17.312C92.0605 17.168 92.0805 17.036 92.1045 16.916C92.1285 16.764 92.2045 16.688 92.3325 16.688H92.8485C92.9925 16.688 93.0525 16.768 93.0285 16.928C93.0125 17.112 92.9925 17.312 92.9685 17.528C92.9525 17.736 92.9445 17.908 92.9445 18.044C92.9445 18.444 92.9685 18.824 93.0165 19.184C93.0645 19.536 93.1805 19.844 93.3645 20.108C93.5485 20.38 93.8165 20.596 94.1685 20.756C94.5205 20.916 95.0045 20.996 95.6205 20.996C95.8605 20.996 96.0965 20.988 96.3285 20.972C96.5685 20.964 96.7805 20.94 96.9645 20.9C96.9645 20.676 96.9645 20.48 96.9645 20.312C96.9725 20.152 96.9765 20.004 96.9765 19.868C96.9845 19.724 96.9885 19.584 96.9885 19.448C96.9885 19.312 96.9885 19.16 96.9885 18.992V17.684C96.9885 16.828 97.2325 16.212 97.7205 15.836C98.2085 15.452 98.8885 15.26 99.7605 15.26C100.009 15.26 100.269 15.272 100.541 15.296C100.813 15.312 101.061 15.352 101.285 15.416C101.349 15.432 101.397 15.456 101.429 15.488C101.461 15.512 101.477 15.56 101.477 15.632V19.76C101.477 19.824 101.457 19.88 101.417 19.928C101.377 19.976 101.321 20 101.249 20H100.685C100.621 20 100.569 19.976 100.529 19.928C100.489 19.88 100.469 19.824 100.469 19.76V16.268C100.293 16.244 100.145 16.228 100.025 16.22C99.9125 16.212 99.7845 16.208 99.6405 16.208C99.3845 16.208 99.1525 16.232 98.9445 16.28C98.7445 16.328 98.5725 16.412 98.4285 16.532C98.2925 16.644 98.1845 16.8 98.1045 17C98.0325 17.2 97.9965 17.452 97.9965 17.756V19.928C97.9965 20.04 97.9965 20.168 97.9965 20.312C97.9965 20.456 97.9965 20.604 97.9965 20.756C97.9965 20.916 97.9925 21.068 97.9845 21.212C97.9845 21.356 97.9805 21.484 97.9725 21.596C97.9725 21.676 97.9485 21.732 97.9005 21.764C97.8605 21.804 97.7965 21.832 97.7085 21.848C97.4125 21.904 97.0805 21.944 96.7125 21.968C96.3445 21.992 95.9685 22.004 95.5845 22.004C94.8725 22.004 94.2845 21.916 93.8205 21.74C93.3565 21.572 92.9845 21.332 92.7045 21.02C92.4325 20.708 92.2405 20.332 92.1285 19.892C92.0165 19.444 91.9605 18.948 91.9605 18.404ZM93.5325 23.204C93.5325 23.124 93.5605 23.06 93.6165 23.012C93.6725 22.972 93.7365 22.952 93.8085 22.952H94.2525C94.3325 22.952 94.3965 22.972 94.4445 23.012C94.5005 23.06 94.5285 23.124 94.5285 23.204V23.804C94.5285 23.868 94.5005 23.924 94.4445 23.972C94.3885 24.02 94.3245 24.044 94.2525 24.044H93.8085C93.7365 24.044 93.6725 24.02 93.6165 23.972C93.5605 23.924 93.5325 23.868 93.5325 23.804V23.204ZM95.4765 23.204C95.4765 23.124 95.5045 23.06 95.5605 23.012C95.6165 22.972 95.6805 22.952 95.7525 22.952H96.2085C96.2725 22.952 96.3325 22.972 96.3885 23.012C96.4445 23.06 96.4725 23.124 96.4725 23.204V23.804C96.4725 23.868 96.4445 23.924 96.3885 23.972C96.3325 24.02 96.2725 24.044 96.2085 24.044H95.7525C95.6805 24.044 95.6165 24.02 95.5605 23.972C95.5045 23.924 95.4765 23.868 95.4765 23.804V23.204ZM106.933 15.464C106.773 15.448 106.617 15.436 106.465 15.428C106.313 15.42 106.133 15.416 105.925 15.416C105.397 15.416 104.977 15.564 104.665 15.86C104.361 16.156 104.209 16.58 104.209 17.132V17.372C104.209 17.94 104.329 18.352 104.569 18.608C104.809 18.864 105.217 18.992 105.793 18.992C106.105 18.992 106.373 18.972 106.597 18.932C106.821 18.892 106.933 18.78 106.933 18.596V15.464ZM103.621 22.016C103.621 21.904 103.685 21.848 103.813 21.848C103.949 21.848 104.121 21.848 104.329 21.848C104.537 21.856 104.705 21.86 104.833 21.86C105.153 21.86 105.441 21.84 105.697 21.8C105.953 21.768 106.169 21.7 106.345 21.596C106.529 21.5 106.669 21.36 106.765 21.176C106.869 21 106.921 20.768 106.921 20.48V19.772C106.865 19.82 106.781 19.86 106.669 19.892C106.565 19.916 106.445 19.94 106.309 19.964C106.181 19.98 106.053 19.992 105.925 20C105.797 20 105.685 20 105.589 20C104.861 20 104.281 19.792 103.849 19.376C103.417 18.96 103.201 18.332 103.201 17.492V17.192C103.201 16.352 103.449 15.688 103.945 15.2C104.441 14.712 105.145 14.468 106.057 14.468C106.377 14.468 106.685 14.484 106.981 14.516C107.285 14.54 107.541 14.584 107.749 14.648C107.829 14.672 107.881 14.7 107.905 14.732C107.929 14.756 107.941 14.8 107.941 14.864V20.3C107.941 20.796 107.869 21.204 107.725 21.524C107.581 21.844 107.381 22.096 107.125 22.28C106.869 22.472 106.565 22.604 106.213 22.676C105.861 22.756 105.473 22.796 105.049 22.796C104.969 22.796 104.865 22.792 104.737 22.784C104.617 22.784 104.493 22.78 104.365 22.772C104.245 22.772 104.133 22.768 104.029 22.76C103.925 22.752 103.853 22.744 103.813 22.736C103.733 22.72 103.681 22.696 103.657 22.664C103.633 22.64 103.621 22.6 103.621 22.544V22.016ZM109.982 11.216C109.982 11.152 110.002 11.096 110.042 11.048C110.09 11 110.146 10.976 110.21 10.976H110.798C110.862 10.976 110.914 11 110.954 11.048C110.994 11.096 111.014 11.152 111.014 11.216V18.26C111.014 18.42 111.03 18.548 111.062 18.644C111.102 18.732 111.154 18.8 111.218 18.848C111.29 18.896 111.374 18.928 111.47 18.944C111.574 18.96 111.69 18.968 111.818 18.968H112.118V20H111.554C111.298 20 111.074 19.98 110.882 19.94C110.69 19.892 110.526 19.812 110.39 19.7C110.254 19.58 110.15 19.424 110.078 19.232C110.014 19.04 109.982 18.792 109.982 18.488V11.216ZM113.337 12.692C113.337 12.612 113.365 12.548 113.421 12.5C113.477 12.452 113.541 12.428 113.613 12.428H114.141C114.213 12.428 114.273 12.452 114.321 12.5C114.377 12.548 114.405 12.612 114.405 12.692V13.34C114.405 13.412 114.377 13.472 114.321 13.52C114.273 13.568 114.209 13.592 114.129 13.592H113.613C113.533 13.592 113.465 13.568 113.409 13.52C113.361 13.472 113.337 13.412 113.337 13.34V12.692ZM111.633 19.124C111.633 19.076 111.673 19.04 111.753 19.016C111.833 18.984 111.929 18.968 112.041 18.968H112.881C113.113 18.968 113.261 18.948 113.325 18.908C113.389 18.868 113.421 18.744 113.421 18.536C113.421 18.256 113.421 17.992 113.421 17.744C113.421 17.496 113.421 17.248 113.421 17C113.421 16.752 113.417 16.496 113.409 16.232C113.409 15.968 113.405 15.68 113.397 15.368C113.397 15.304 113.413 15.252 113.445 15.212C113.485 15.164 113.537 15.14 113.601 15.14H114.177C114.249 15.14 114.305 15.164 114.345 15.212C114.385 15.252 114.405 15.304 114.405 15.368C114.413 15.64 114.417 15.868 114.417 16.052C114.425 16.236 114.429 16.412 114.429 16.58C114.429 16.74 114.429 16.908 114.429 17.084C114.429 17.252 114.429 17.456 114.429 17.696C114.429 18.08 114.425 18.436 114.417 18.764C114.417 19.092 114.405 19.348 114.381 19.532C114.365 19.612 114.337 19.68 114.297 19.736C114.265 19.792 114.201 19.84 114.105 19.88C114.041 19.904 113.953 19.924 113.841 19.94C113.729 19.948 113.601 19.96 113.457 19.976C113.313 19.984 113.165 19.992 113.013 20C112.861 20 112.717 20 112.581 20H112.041C111.929 20 111.833 19.988 111.753 19.964C111.673 19.932 111.633 19.888 111.633 19.832V19.124ZM115.97 19.184C115.97 19.12 115.994 19.068 116.042 19.028C116.09 18.988 116.146 18.968 116.21 18.968H119.486L119.474 17.492C119.458 16.788 119.282 16.264 118.946 15.92C118.61 15.576 118.062 15.404 117.302 15.404C117.214 15.404 117.086 15.408 116.918 15.416C116.758 15.416 116.618 15.424 116.498 15.44C116.338 15.456 116.258 15.4 116.258 15.272V14.78C116.258 14.716 116.274 14.664 116.306 14.624C116.346 14.584 116.41 14.56 116.498 14.552C116.706 14.52 116.902 14.5 117.086 14.492C117.278 14.484 117.418 14.48 117.506 14.48C118.042 14.48 118.498 14.552 118.874 14.696C119.25 14.84 119.554 15.044 119.786 15.308C120.018 15.572 120.186 15.884 120.29 16.244C120.402 16.604 120.466 17 120.482 17.432L120.494 18.968H121.286V20H116.21C116.146 20 116.09 19.984 116.042 19.952C115.994 19.912 115.97 19.86 115.97 19.796V19.184ZM120.809 19.124C120.809 19.076 120.849 19.04 120.929 19.016C121.009 18.984 121.105 18.968 121.217 18.968H121.757C121.837 18.968 121.925 18.964 122.021 18.956C122.117 18.948 122.209 18.932 122.297 18.908C122.385 18.876 122.457 18.832 122.513 18.776C122.577 18.712 122.609 18.628 122.609 18.524V15.38C122.609 15.316 122.629 15.264 122.669 15.224C122.717 15.176 122.773 15.152 122.837 15.152H123.389C123.453 15.152 123.505 15.176 123.545 15.224C123.593 15.264 123.617 15.316 123.617 15.38V18.68C123.641 18.744 123.689 18.796 123.761 18.836C123.841 18.868 123.925 18.896 124.013 18.92C124.109 18.936 124.205 18.948 124.301 18.956C124.397 18.964 124.481 18.968 124.553 18.968H124.721V20H124.577C124.329 20 124.061 19.976 123.773 19.928C123.493 19.872 123.261 19.764 123.077 19.604C122.877 19.764 122.637 19.872 122.357 19.928C122.085 19.976 121.837 20 121.613 20H121.217C121.105 20 121.009 19.988 120.929 19.964C120.849 19.932 120.809 19.888 120.809 19.832V19.124ZM121.445 21.38C121.445 21.3 121.469 21.236 121.517 21.188C121.573 21.14 121.641 21.116 121.721 21.116H122.189C122.269 21.116 122.333 21.14 122.381 21.188C122.437 21.236 122.465 21.3 122.465 21.38V22.028C122.465 22.092 122.437 22.148 122.381 22.196C122.325 22.252 122.261 22.28 122.189 22.28H121.721C121.641 22.28 121.573 22.252 121.517 22.196C121.469 22.148 121.445 22.092 121.445 22.028V21.38ZM123.401 21.38C123.401 21.3 123.429 21.236 123.485 21.188C123.549 21.14 123.617 21.116 123.689 21.116H124.157C124.229 21.116 124.293 21.14 124.349 21.188C124.405 21.236 124.433 21.3 124.433 21.38V22.028C124.433 22.092 124.405 22.148 124.349 22.196C124.293 22.252 124.229 22.28 124.157 22.28H123.689C123.617 22.28 123.549 22.252 123.485 22.196C123.429 22.148 123.401 22.092 123.401 22.028V21.38ZM124.242 19.124C124.242 19.076 124.282 19.04 124.362 19.016C124.442 18.984 124.538 18.968 124.65 18.968H126.018V14.744C126.018 14.68 126.038 14.624 126.078 14.576C126.126 14.528 126.182 14.504 126.246 14.504H126.798C126.862 14.504 126.914 14.528 126.954 14.576C127.002 14.624 127.026 14.68 127.026 14.744V15.224C127.234 15.064 127.466 14.936 127.722 14.84C127.978 14.736 128.23 14.66 128.478 14.612C128.726 14.556 128.958 14.52 129.174 14.504C129.39 14.488 129.566 14.48 129.702 14.48C130.214 14.48 130.666 14.536 131.058 14.648C131.458 14.76 131.794 14.94 132.066 15.188C132.338 15.436 132.542 15.756 132.678 16.148C132.822 16.54 132.894 17.016 132.894 17.576V17.816C132.894 17.944 132.89 18.088 132.882 18.248C132.882 18.408 132.878 18.568 132.87 18.728C132.862 18.888 132.846 19.044 132.822 19.196C132.806 19.348 132.782 19.476 132.75 19.58C132.726 19.66 132.682 19.74 132.618 19.82C132.562 19.892 132.462 19.936 132.318 19.952C132.206 19.968 132.026 19.98 131.778 19.988C131.538 19.988 131.274 19.992 130.986 20C130.706 20 130.43 20 130.158 20C129.894 20 129.678 20 129.51 20H124.65C124.538 20 124.442 19.988 124.362 19.964C124.282 19.932 124.242 19.888 124.242 19.832V19.124ZM127.026 18.956C127.226 18.972 127.43 18.98 127.638 18.98C127.854 18.98 128.13 18.98 128.466 18.98H131.562C131.618 18.98 131.666 18.968 131.706 18.944C131.754 18.92 131.79 18.872 131.814 18.8C131.838 18.72 131.854 18.612 131.862 18.476C131.878 18.34 131.886 18.164 131.886 17.948V17.732C131.886 17.292 131.834 16.928 131.73 16.64C131.634 16.352 131.486 16.124 131.286 15.956C131.086 15.78 130.834 15.656 130.53 15.584C130.226 15.512 129.87 15.476 129.462 15.476C129.342 15.476 129.178 15.488 128.97 15.512C128.77 15.528 128.554 15.56 128.322 15.608C128.09 15.656 127.858 15.724 127.626 15.812C127.394 15.892 127.194 16 127.026 16.136V18.956Z" fill="white"/>
</svg>
