<svg width="70" height="37" viewBox="0 0 70 37" fill="none" xmlns="http://www.w3.org/2000/svg">
<path fill-rule="evenodd" clip-rule="evenodd" d="M63.5479 37.0011C67.1113 37.0011 70 34.1124 70 30.5489L70 13.4532C70 9.88978 67.1113 7.00107 63.5479 7.00107L39.8034 7.00107L36.3442 0.91673C35.7258 -0.171016 34.1581 -0.171016 33.5397 0.916726L30.0806 7.00107L6.45212 7.00107C2.88871 7.00107 -3.91235e-07 9.88978 1.43821e-06 13.4532L3.9407e-07 30.5489C1.76432e-07 34.1124 2.88871 37.0011 6.45212 37.0011L63.5479 37.0011Z" fill="#1E1B39"/>
<path d="M29.4715 24.9691C29.3115 24.7931 29.1795 24.5611 29.0755 24.2731C28.9715 23.9771 28.9195 23.6251 28.9195 23.2171V22.9531C28.9195 22.1611 29.1675 21.5411 29.6635 21.0931C30.1595 20.6451 30.8395 20.4211 31.7035 20.4211C32.0315 20.4211 32.3555 20.4371 32.6755 20.4691C32.9955 20.4931 33.2675 20.5371 33.4915 20.6011C33.5635 20.6171 33.6115 20.6411 33.6355 20.6731C33.6595 20.7051 33.6715 20.7531 33.6715 20.8171V23.9611C33.6715 24.0971 33.6715 24.2451 33.6715 24.4051C33.6715 24.5571 33.6675 24.7131 33.6595 24.8731C33.6595 25.0251 33.6555 25.1731 33.6475 25.3171C33.6475 25.4611 33.6435 25.5931 33.6355 25.7131C33.6275 25.8491 33.5355 25.9251 33.3595 25.9411C33.0235 25.9731 32.6955 25.9931 32.3755 26.0011C32.0635 26.0011 31.7555 26.0011 31.4515 26.0011H26.8315C26.0875 26.0011 25.4675 25.9331 24.9715 25.7971C24.4835 25.6531 24.0915 25.4451 23.7955 25.1731C23.5075 24.9011 23.3035 24.5691 23.1835 24.1771C23.0715 23.7771 23.0155 23.3211 23.0155 22.8091C23.0155 22.6411 23.0195 22.4691 23.0275 22.2931C23.0435 22.1171 23.0755 21.9131 23.1235 21.6811C23.1395 21.5931 23.1635 21.5331 23.1955 21.5011C23.2275 21.4611 23.2795 21.4411 23.3515 21.4411H23.8555C23.9995 21.4411 24.0595 21.5211 24.0355 21.6811C24.0195 21.8651 24.0075 22.0211 23.9995 22.1491C23.9995 22.2771 23.9995 22.4091 23.9995 22.5451C23.9995 22.9291 24.0355 23.2731 24.1075 23.5771C24.1795 23.8731 24.3195 24.1251 24.5275 24.3331C24.7435 24.5411 25.0395 24.7011 25.4155 24.8131C25.7915 24.9171 26.2835 24.9691 26.8915 24.9691H29.4715ZM29.9275 23.2531C29.9275 23.8131 30.0515 24.2451 30.2995 24.5491C30.5555 24.8451 30.9555 24.9931 31.4995 24.9931C31.6835 24.9931 31.8795 24.9931 32.0875 24.9931C32.2955 24.9851 32.4875 24.9731 32.6635 24.9571V21.4291C32.5035 21.4051 32.3395 21.3891 32.1715 21.3811C32.0115 21.3731 31.8275 21.3691 31.6195 21.3691C31.0675 21.3691 30.6475 21.5091 30.3595 21.7891C30.0715 22.0691 29.9275 22.4691 29.9275 22.9891V23.2531ZM30.9715 18.2011C30.9715 18.1211 30.9995 18.0571 31.0555 18.0091C31.1115 17.9611 31.1755 17.9371 31.2475 17.9371H31.7755C31.8475 17.9371 31.9075 17.9611 31.9555 18.0091C32.0115 18.0571 32.0395 18.1211 32.0395 18.2011V18.8491C32.0395 18.9211 32.0115 18.9811 31.9555 19.0291C31.9075 19.0771 31.8435 19.1011 31.7635 19.1011H31.2475C31.1675 19.1011 31.0995 19.0771 31.0435 19.0291C30.9955 18.9811 30.9715 18.9211 30.9715 18.8491V18.2011ZM36.7367 18.2131C36.7367 18.1331 36.7647 18.0691 36.8207 18.0211C36.8767 17.9731 36.9407 17.9491 37.0127 17.9491H37.5407C37.6127 17.9491 37.6727 17.9731 37.7207 18.0211C37.7767 18.0691 37.8047 18.1331 37.8047 18.2131V18.8611C37.8047 18.9331 37.7767 18.9931 37.7207 19.0411C37.6727 19.0891 37.6087 19.1131 37.5287 19.1131H37.0127C36.9327 19.1131 36.8647 19.0891 36.8087 19.0411C36.7607 18.9931 36.7367 18.9331 36.7367 18.8611V18.2131ZM35.1887 25.1851C35.1887 25.1211 35.2127 25.0691 35.2607 25.0291C35.3087 24.9891 35.3647 24.9691 35.4287 24.9691H38.7047L38.6927 23.4931C38.6767 22.7891 38.5007 22.2651 38.1647 21.9211C37.8287 21.5771 37.2807 21.4051 36.5207 21.4051C36.4327 21.4051 36.3047 21.4091 36.1367 21.4171C35.9767 21.4171 35.8367 21.4251 35.7167 21.4411C35.5567 21.4571 35.4767 21.4011 35.4767 21.2731V20.7811C35.4767 20.7171 35.4927 20.6651 35.5247 20.6251C35.5647 20.5851 35.6287 20.5611 35.7167 20.5531C35.9247 20.5211 36.1207 20.5011 36.3047 20.4931C36.4967 20.4851 36.6367 20.4811 36.7247 20.4811C37.2607 20.4811 37.7167 20.5531 38.0927 20.6971C38.4687 20.8411 38.7727 21.0451 39.0047 21.3091C39.2367 21.5731 39.4047 21.8851 39.5087 22.2451C39.6207 22.6051 39.6847 23.0011 39.7007 23.4331L39.7127 24.9691H40.5047V26.0011H35.4287C35.3647 26.0011 35.3087 25.9851 35.2607 25.9531C35.2127 25.9131 35.1887 25.8611 35.1887 25.7971V25.1851ZM40.0278 25.1251C40.0278 25.0771 40.0678 25.0411 40.1478 25.0171C40.2278 24.9851 40.3238 24.9691 40.4358 24.9691H46.0038L45.5718 23.9371L45.2958 23.3011C45.0318 22.6931 44.6798 22.2411 44.2398 21.9451C43.8078 21.6411 43.2158 21.4891 42.4638 21.4891C42.4318 21.4891 42.3798 21.4931 42.3078 21.5011C42.2438 21.5011 42.1678 21.5051 42.0798 21.5131C41.9998 21.5211 41.9158 21.5291 41.8278 21.5371C41.7478 21.5371 41.6758 21.5411 41.6118 21.5491C41.4358 21.5651 41.3478 21.5091 41.3478 21.3811V20.8891C41.3478 20.8251 41.3638 20.7771 41.3958 20.7451C41.4278 20.7051 41.4878 20.6771 41.5758 20.6611C41.7518 20.6211 41.9478 20.5931 42.1638 20.5771C42.3878 20.5611 42.5718 20.5531 42.7158 20.5531C43.1158 20.5531 43.4918 20.5931 43.8438 20.6731C44.1958 20.7451 44.5278 20.8851 44.8398 21.0931C45.1518 21.2931 45.4398 21.5731 45.7038 21.9331C45.9678 22.2851 46.2158 22.7411 46.4478 23.3011L46.5678 23.6131L47.0718 24.8971C47.0878 24.9531 47.0998 25.0091 47.1078 25.0651C47.1238 25.1211 47.1318 25.1931 47.1318 25.2811V25.7131C47.1318 25.8011 47.1078 25.8731 47.0598 25.9291C47.0118 25.9771 46.9198 26.0011 46.7838 26.0011H40.4358C40.3158 26.0011 40.2198 25.9851 40.1478 25.9531C40.0678 25.9131 40.0278 25.8731 40.0278 25.8331V25.1251Z" fill="#E5E5EF"/>
</svg>
